<?xml version="1.0" encoding="UTF-8" standalone="no"?>
<!-- Created with Inkscape (http://www.inkscape.org/) -->

<svg
   xmlns:dc="http://purl.org/dc/elements/1.1/"
   xmlns:cc="http://creativecommons.org/ns#"
   xmlns:rdf="http://www.w3.org/1999/02/22-rdf-syntax-ns#"
   xmlns:svg="http://www.w3.org/2000/svg"
   xmlns="http://www.w3.org/2000/svg"
   xmlns:xlink="http://www.w3.org/1999/xlink"
   xmlns:sodipodi="http://sodipodi.sourceforge.net/DTD/sodipodi-0.dtd"
   xmlns:inkscape="http://www.inkscape.org/namespaces/inkscape"
   width="640"
   height="960"
   id="svg7955"
   version="1.1"
   inkscape:version="0.48.1 "
   sodipodi:docname="Default.svg">
  <defs
     id="defs7957">
    <linearGradient
       id="linearGradient9120">
      <stop
         style="stop-color:#000000;stop-opacity:1;"
         offset="0"
         id="stop9122" />
      <stop
         style="stop-color:#3c3c3c;stop-opacity:1;"
         offset="1"
         id="stop9124" />
    </linearGradient>
    <linearGradient
       inkscape:collect="always"
       xlink:href="#linearGradient3083-4"
       id="linearGradient4075"
       gradientUnits="userSpaceOnUse"
       gradientTransform="matrix(2.0645166,0,0,2.0645166,-52.357399,-592.46222)"
       x1="164.97231"
       y1="474.8013"
       x2="34.588753"
       y2="293.57654" />
    <linearGradient
       id="linearGradient3083-4">
      <stop
         style="stop-color:#9ba5b5;stop-opacity:1;"
         offset="0"
         id="stop3085-5" />
      <stop
         style="stop-color:#f1f2f5;stop-opacity:1;"
         offset="1"
         id="stop3087-9" />
    </linearGradient>
    <linearGradient
       y2="293.57654"
       x2="34.588753"
       y1="474.8013"
       x1="164.97231"
       gradientTransform="matrix(1.5944426,0,0,1.5944426,160.07343,-105.67634)"
       gradientUnits="userSpaceOnUse"
       id="linearGradient8814"
       xlink:href="#linearGradient3083-4"
       inkscape:collect="always" />
    <filter
       inkscape:collect="always"
       id="filter8980"
       x="-0.066500433"
       width="1.1330009"
       y="-0.49768066"
       height="1.9953613"
       color-interpolation-filters="sRGB">
      <feGaussianBlur
         inkscape:collect="always"
         stdDeviation="9.1049516"
         id="feGaussianBlur8982" />
    </filter>
    <linearGradient
       inkscape:collect="always"
       xlink:href="#linearGradient3083-4"
       id="linearGradient8984"
       gradientUnits="userSpaceOnUse"
       gradientTransform="matrix(1.5944426,0,0,1.5944426,160.07343,-105.67634)"
       x1="164.97231"
       y1="474.8013"
       x2="34.588753"
       y2="293.57654" />
    <linearGradient
       inkscape:collect="always"
       xlink:href="#linearGradient3083-4"
       id="linearGradient8990"
       gradientUnits="userSpaceOnUse"
       gradientTransform="matrix(1.5944426,0,0,1.5944426,160.07343,-105.67634)"
       x1="164.97231"
       y1="474.8013"
       x2="34.588753"
       y2="293.57654" />
    <radialGradient
       inkscape:collect="always"
       xlink:href="#linearGradient3083-4"
       id="radialGradient9086"
       cx="320"
       cy="572.36218"
       fx="320"
       fy="572.36218"
       r="416"
       gradientTransform="matrix(1,0,0,1.3846154,0,-220.1393)"
       gradientUnits="userSpaceOnUse" />
    <linearGradient
       inkscape:collect="always"
       xlink:href="#linearGradient9120"
       id="linearGradient9126"
       x1="479.43762"
       y1="709.90295"
       x2="203.05341"
       y2="358.6434"
       gradientUnits="userSpaceOnUse" />
    <filter
       inkscape:collect="always"
       id="filter9156"
       x="-0.44999999"
       width="1.9"
       y="-0.30000001"
       height="1.6"
       color-interpolation-filters="sRGB">
      <feGaussianBlur
         inkscape:collect="always"
         stdDeviation="120"
         id="feGaussianBlur9158" />
    </filter>
    <linearGradient
       inkscape:collect="always"
       xlink:href="#linearGradient9120-4"
       id="linearGradient9126-8"
       x1="479.43762"
       y1="709.90295"
       x2="203.05341"
       y2="358.6434"
       gradientUnits="userSpaceOnUse" />
    <linearGradient
       id="linearGradient9120-4">
      <stop
         style="stop-color:#000000;stop-opacity:1;"
         offset="0"
         id="stop9122-4" />
      <stop
         style="stop-color:#3c3c3c;stop-opacity:1;"
         offset="1"
         id="stop9124-7" />
    </linearGradient>
    <filter
       inkscape:collect="always"
       id="filter9206"
       color-interpolation-filters="sRGB">
      <feGaussianBlur
         inkscape:collect="always"
         stdDeviation="5.480973"
         id="feGaussianBlur9208" />
    </filter>
  </defs>
  <sodipodi:namedview
     id="base"
     pagecolor="#ffffff"
     bordercolor="#666666"
     borderopacity="1.0"
     inkscape:pageopacity="0.0"
     inkscape:pageshadow="2"
     inkscape:zoom="0.77395833"
     inkscape:cx="320"
     inkscape:cy="480"
     inkscape:document-units="px"
     inkscape:current-layer="layer1"
     showgrid="false"
     showborder="false"
     inkscape:window-width="1280"
     inkscape:window-height="962"
     inkscape:window-x="-8"
     inkscape:window-y="-8"
     inkscape:window-maximized="1" />
  <metadata
     id="metadata7960">
    <rdf:RDF>
      <cc:Work
         rdf:about="">
        <dc:format>image/svg+xml</dc:format>
        <dc:type
           rdf:resource="http://purl.org/dc/dcmitype/StillImage" />
        <dc:title></dc:title>
      </cc:Work>
    </rdf:RDF>
  </metadata>
  <g
     inkscape:label="Layer 1"
     inkscape:groupmode="layer"
     id="layer1"
     transform="translate(0,-92.362183)">
    <rect
       style="fill:#6e7c8f;fill-opacity:1;stroke:none"
       id="rect8867"
       width="640"
       height="960"
       x="0"
       y="92.362213" />
    <rect
       style="fill:url(#radialGradient9086);fill-opacity:1;stroke:none;filter:url(#filter9156)"
       id="rect8867-4"
       width="640"
       height="960"
       x="0"
       y="92.362183" />
    <path
       inkscape:connector-curvature="0"
       style="fill:#000000;fill-opacity:1;stroke:#000000;stroke-width:1.07755256;stroke-opacity:1"
       d="m 140.53125,292.90625 c -5.54,0 -10,4.46 -10,10 l 0,540 c 0,5.54 4.46,10 10,10 l 360,0 c 5.54,0 10,-4.46 10,-10 l 0,-540 c 0,-5.54 -4.46,-10 -10,-10 l -360,0 z M 180.375,332.75 l 280,0 c 5.54,0 10,4.46 10,10 l 0,330 c 0,5.54 -4.46,10 -10,10 l -280,0 c -5.54,0 -10,-4.46 -10,-10 l 0,-330 c 0,-5.54 4.46,-10 10,-10 z"
       id="rect7974" />
    <path
       inkscape:connector-curvature="0"
       style="fill:#000000;fill-opacity:1;fill-rule:evenodd;stroke:none;filter:url(#filter9206)"
       d="m 319.99999,352.90059 c -59.24416,0 -111.52848,39.47828 -111.62263,93.52166 -9e-5,0.0488 0,0.0961 0,0.14481 l 0,47.69002 39.87039,0 0,-47.69002 0,-0.14481 c 0.10505,-27.28439 29.85658,-53.65126 71.75224,-53.65126 41.89567,0 71.64717,26.36687 71.75224,53.65126 l 0,0.14481 0,47.69002 39.84626,0 0,-47.69002 0,-0.14481 c -0.0941,-54.04336 -52.35441,-93.52166 -111.5985,-93.52166 z m -119.58706,149.48986 0,47.83481 239.17411,0 0,-47.83481 -239.17412,0 z m 0,55.79925 0,47.83482 239.17411,0 0,-47.83482 -239.17412,0 z m 0,55.79924 0,47.83483 239.17411,0 0,-47.83483 -239.17412,0 z"
       id="rect3785-5-9-2-5-9-3" />
    <path
       inkscape:connector-curvature="0"
       style="fill:url(#linearGradient9126);fill-opacity:1;fill-rule:evenodd;stroke:none"
       d="m 319.99999,352.90059 c -59.24416,0 -111.52848,39.47828 -111.62263,93.52166 -9e-5,0.0488 0,0.0961 0,0.14481 l 0,47.69002 39.87039,0 0,-47.69002 0,-0.14481 c 0.10505,-27.28439 29.85658,-53.65126 71.75224,-53.65126 41.89567,0 71.64717,26.36687 71.75224,53.65126 l 0,0.14481 0,47.69002 39.84626,0 0,-47.69002 0,-0.14481 c -0.0941,-54.04336 -52.35441,-93.52166 -111.5985,-93.52166 z m -119.58706,149.48986 0,47.83481 239.17411,0 0,-47.83481 -239.17412,0 z m 0,55.79925 0,47.83482 239.17411,0 0,-47.83482 -239.17412,0 z m 0,55.79924 0,47.83483 239.17411,0 0,-47.83483 -239.17412,0 z"
       id="rect3785-5-9-2-5-9" />
    <text
       xml:space="preserve"
       style="font-size:56px;font-style:normal;font-variant:normal;font-weight:bold;font-stretch:normal;text-align:center;line-height:100%;letter-spacing:0px;word-spacing:0px;text-anchor:middle;fill:#ffffff;fill-opacity:1;stroke:none;font-family:Calibri;-inkscape-font-specification:Calibri Bold"
       x="319.06836"
       y="755.56012"
       id="text8833"
       sodipodi:linespacing="100%"><tspan
         sodipodi:role="line"
         id="tspan8835"
         x="319.06836"
         y="755.56012"
         style="font-size:72px;font-style:normal;font-variant:normal;font-weight:bold;font-stretch:normal;font-family:Arial;-inkscape-font-specification:Arial Bold">Mobile</tspan><tspan
         sodipodi:role="line"
         x="319.06836"
         y="827.56012"
         id="tspan8837"
         style="font-size:72px;font-style:normal;font-variant:normal;font-weight:bold;font-stretch:normal;font-family:Arial;-inkscape-font-specification:Arial Bold">KeePass</tspan></text>
    <path
       sodipodi:type="arc"
       style="fill:#000000;fill-opacity:0.33918128;stroke:none;filter:url(#filter8980)"
       id="path8870"
       sodipodi:cx="240.78273"
       sodipodi:cy="231.57634"
       sodipodi:rx="164.29881"
       sodipodi:ry="21.95372"
       d="m 405.08154,231.57634 c 0,12.1247 -73.55908,21.95372 -164.29881,21.95372 -90.73973,0 -164.298813,-9.82902 -164.298813,-21.95372 0,-12.12471 73.559083,-21.95372 164.298813,-21.95372 90.73973,0 164.29881,9.82901 164.29881,21.95372 z"
       transform="matrix(1.4064568,0,0,0.85692444,-18.111735,652.38229)" />
  </g>
</svg>
